<svg xmlns="http://www.w3.org/2000/svg" version="1.1" xmlns:xlink="http://www.w3.org/1999/xlink" width="1000" height="1000"><metadata><rdf:RDF xmlns:rdf="http://www.w3.org/1999/02/22-rdf-syntax-ns#" xmlns:dc="http://purl.org/dc/elements/1.1/"><rdf:Description><dc:creator>RealFaviconGenerator</dc:creator><dc:source>https://realfavicongenerator.net</dc:source></rdf:Description></rdf:RDF></metadata><g clip-path="url(#SvgjsClipPath2083)"><rect width="1000" height="1000" fill="#f0a8a8"></rect><g transform="matrix(0.35,0,0,0.35,150,150)"><svg xmlns="http://www.w3.org/2000/svg" version="1" xmlns:xlink="http://www.w3.org/1999/xlink" width="2000" zoomAndPan="magnify" viewBox="0 0 1500 1499.999933" height="2000" preserveAspectRatio="xMidYMid meet"><defs><g></g><clipPath id="a80beae052"><path d="M 1 1 L 2.160156 1 L 2.160156 2 L 1 2 Z M 1 1 " clip-rule="nonzero"></path></clipPath><clipPath id="a0f7bcd275"><rect x="0" width="3" y="0" height="3"></rect></clipPath><clipPath id="SvgjsClipPath2083"><rect width="1000" height="1000" x="0" y="0" rx="350" ry="350"></rect></clipPath></defs><path fill="#ffffff" d="M 753.832031 534.414062 C 754.585938 535.167969 754.585938 535.167969 754.585938 535.851562 L 754.585938 1107.4375 L 684.070312 1107.4375 L 684.070312 723.4375 L 588.773438 836.195312 L 542.21875 890.003906 L 526.199219 908.898438 L 482.585938 960.519531 L 481.148438 961.957031 L 480.398438 961.957031 C 479.644531 961.957031 479.644531 961.957031 478.960938 961.957031 L 478.207031 960.519531 L 433.84375 908.898438 L 417.824219 890.003906 L 372.023438 836.195312 L 276.039062 723.4375 L 276.039062 1107.4375 L 205.523438 1107.4375 L 205.523438 535.851562 C 206.277344 535.097656 206.277344 535.097656 206.277344 534.414062 C 207.027344 534.414062 207.714844 534.414062 208.464844 535.167969 L 209.21875 535.917969 L 276.105469 615.199219 L 417.890625 781.765625 L 464.445312 836.332031 L 480.464844 854.542969 L 495.734375 836.332031 L 542.285156 781.765625 L 684.070312 615.199219 L 751.710938 535.917969 L 752.464844 535.167969 C 753.082031 534.414062 753.082031 534.414062 753.832031 534.414062 Z M 1066.839844 466.5 L 1242.71875 906.984375 C 1225.46875 918.757812 1203.492188 928.960938 1178.367188 937.585938 C 1145.367188 947.785156 1106.140625 954.835938 1061.363281 954.835938 C 1016.589844 954.835938 977.363281 947.785156 944.363281 937.585938 C 919.238281 928.960938 898.015625 918.757812 880.761719 906.984375 L 1056.640625 466.5 C 1056.640625 466.5 1056.640625 466.5 1056.640625 465.746094 C 1057.394531 464.171875 1058.96875 461.84375 1061.363281 461.84375 C 1063.691406 461.84375 1065.265625 464.171875 1066.839844 465.746094 Z M 1061.363281 643.953125 L 970.308594 873.984375 C 994.683594 881.035156 1024.464844 886.511719 1061.363281 886.511719 C 1098.265625 886.511719 1128.867188 881.035156 1153.242188 873.984375 Z M 1441.121094 457.941406 C 1403.332031 368.667969 1349.316406 288.429688 1280.441406 219.625 C 1211.570312 150.820312 1131.402344 96.738281 1042.125 58.945312 C 949.636719 19.855469 851.390625 0 750.207031 0 C 649.019531 0 550.777344 19.855469 458.285156 58.945312 C 369.007812 96.738281 288.773438 150.753906 219.96875 219.625 C 213.738281 225.855469 207.644531 232.152344 201.6875 238.519531 L 260.359375 297.191406 C 382.359375 165.265625 556.800781 82.566406 750.207031 82.566406 C 1118.121094 82.566406 1417.503906 381.878906 1417.503906 749.863281 C 1417.503906 873.640625 1383.613281 989.683594 1324.601562 1089.160156 L 1331.859375 1103.535156 C 1331.789062 1103.675781 1331.71875 1103.742188 1331.652344 1103.878906 L 1324.394531 1089.503906 C 1324.464844 1089.367188 1324.53125 1089.296875 1324.601562 1089.160156 L 1277.292969 994.957031 L 1252.167969 930.601562 C 1234.09375 942.378906 1212.117188 952.578125 1187.8125 960.453125 C 1151.664062 972.980469 1108.535156 980.101562 1061.433594 980.101562 C 1014.332031 980.101562 971.953125 973.046875 934.984375 960.453125 C 910.679688 952.578125 889.457031 942.378906 871.382812 931.425781 L 845.503906 995.023438 L 797.582031 1114.355469 L 873.710938 1114.355469 L 909.859375 1024.054688 C 955.386719 1039.730469 1006.457031 1048.425781 1061.433594 1048.425781 C 1116.40625 1048.425781 1168.234375 1039.800781 1212.9375 1024.054688 L 1279.757812 1155.5 C 1279.691406 1155.566406 1279.621094 1155.636719 1279.550781 1155.703125 L 1320.628906 1236.625 C 1337.402344 1217.046875 1353.011719 1196.714844 1367.59375 1175.628906 C 1396.484375 1133.796875 1421.0625 1089.023438 1441.054688 1041.785156 C 1480.144531 949.292969 1500 851.117188 1500 749.863281 C 1500 648.609375 1480.214844 550.433594 1441.121094 457.941406 Z M 1324.601562 1089.160156 C 1324.53125 1089.296875 1324.464844 1089.367188 1324.394531 1089.503906 L 1331.652344 1103.878906 C 1331.71875 1103.742188 1331.789062 1103.675781 1331.859375 1103.535156 Z M 1324.601562 1089.160156 C 1324.53125 1089.296875 1324.464844 1089.367188 1324.394531 1089.503906 L 1331.652344 1103.878906 C 1331.71875 1103.742188 1331.789062 1103.675781 1331.859375 1103.535156 Z M 1232.382812 1210.613281 C 1110.792969 1337.746094 939.570312 1417.09375 750.207031 1417.09375 C 382.292969 1417.09375 82.90625 1117.777344 82.90625 749.792969 C 82.90625 635.53125 111.796875 527.910156 162.597656 433.773438 L 275.96875 577.957031 L 433.773438 763.417969 L 478.136719 815.039062 L 478.890625 816.476562 C 479.644531 816.476562 479.644531 816.476562 480.328125 816.476562 L 481.082031 816.476562 L 481.835938 815.039062 L 526.199219 763.417969 L 684.003906 577.957031 L 752.394531 497.992188 L 753.148438 497.238281 C 753.902344 496.484375 753.902344 496.484375 753.902344 495.800781 C 753.148438 495.800781 753.148438 495.800781 753.148438 495.800781 L 661.410156 495.800781 L 480.328125 708.921875 L 205.113281 365.3125 L 151.4375 298.289062 C 135.554688 319.238281 120.835938 341.007812 107.28125 363.53125 C 89.136719 393.722656 73.050781 425.214844 59.21875 458.011719 C 20.195312 550.433594 0.34375 648.675781 0.34375 749.863281 C 0.34375 851.050781 20.195312 949.292969 59.289062 1041.785156 C 97.078125 1131.058594 151.09375 1211.296875 219.96875 1280.101562 C 288.839844 1348.972656 369.007812 1402.988281 458.285156 1440.78125 C 550.777344 1479.871094 648.949219 1499.726562 750.207031 1499.726562 C 851.390625 1499.726562 949.636719 1479.871094 1042.125 1440.78125 C 1126.128906 1405.25 1202.054688 1355.269531 1268.121094 1292.21875 Z M 1232.382812 1210.613281 " fill-opacity="1" fill-rule="nonzero"></path><g transform="matrix(1, 0, 0, 1, 1482, 1475)"><g clip-path="url(#a0f7bcd275)"><g fill="#000000" fill-opacity="1"><g transform="translate(0.109593, 1.852181)"><g><path d="M 0.265625 -0.6875 L 0 -0.6875 L 0 -0.703125 L 0.546875 -0.703125 L 0.546875 -0.6875 L 0.28125 -0.6875 L 0.28125 0 L 0.265625 0 Z M 0.265625 -0.6875 "></path></g></g></g><g fill="#000000" fill-opacity="1"><g transform="translate(0.602596, 1.852181)"><g><path d="M 0.53125 -0.265625 L 0.078125 -0.265625 C 0.078125 -0.210938 0.0859375 -0.164062 0.109375 -0.125 C 0.128906 -0.09375 0.15625 -0.0664062 0.1875 -0.046875 C 0.226562 -0.0234375 0.269531 -0.015625 0.3125 -0.015625 C 0.34375 -0.015625 0.375 -0.0195312 0.40625 -0.03125 C 0.4375 -0.0507812 0.460938 -0.0703125 0.484375 -0.09375 L 0.5 -0.078125 C 0.476562 -0.0546875 0.453125 -0.0351562 0.421875 -0.015625 C 0.390625 -0.00390625 0.351562 0 0.3125 0 C 0.257812 0 0.210938 -0.0078125 0.171875 -0.03125 C 0.140625 -0.0507812 0.109375 -0.0820312 0.078125 -0.125 C 0.0546875 -0.164062 0.046875 -0.210938 0.046875 -0.265625 C 0.046875 -0.304688 0.0546875 -0.347656 0.078125 -0.390625 C 0.0976562 -0.429688 0.125 -0.460938 0.15625 -0.484375 C 0.195312 -0.503906 0.242188 -0.515625 0.296875 -0.515625 C 0.335938 -0.515625 0.375 -0.503906 0.40625 -0.484375 C 0.445312 -0.460938 0.476562 -0.429688 0.5 -0.390625 C 0.519531 -0.359375 0.53125 -0.316406 0.53125 -0.265625 Z M 0.296875 -0.5 C 0.253906 -0.5 0.21875 -0.488281 0.1875 -0.46875 C 0.15625 -0.445312 0.128906 -0.421875 0.109375 -0.390625 C 0.0859375 -0.359375 0.078125 -0.320312 0.078125 -0.28125 L 0.515625 -0.28125 C 0.515625 -0.320312 0.503906 -0.359375 0.484375 -0.390625 C 0.460938 -0.421875 0.4375 -0.445312 0.40625 -0.46875 C 0.375 -0.488281 0.335938 -0.5 0.296875 -0.5 Z M 0.296875 -0.5 "></path></g></g></g><g fill="#000000" fill-opacity="1"><g transform="translate(1.174599, 1.852181)"><g><path d="M 0.4375 0 L 0.25 -0.25 L 0.046875 0 L 0.03125 0 L 0.234375 -0.265625 L 0.046875 -0.515625 L 0.0625 -0.515625 L 0.25 -0.28125 L 0.4375 -0.515625 L 0.453125 -0.515625 L 0.265625 -0.265625 L 0.46875 0 Z M 0.4375 0 "></path></g></g></g><g clip-path="url(#a80beae052)"><g fill="#000000" fill-opacity="1"><g transform="translate(1.672602, 1.852181)"><g><path d="M 0.34375 -0.03125 C 0.332031 -0.0195312 0.316406 -0.0078125 0.296875 0 C 0.285156 0 0.269531 0 0.25 0 C 0.207031 0 0.175781 -0.0078125 0.15625 -0.03125 C 0.132812 -0.0507812 0.125 -0.0820312 0.125 -0.125 L 0.125 -0.5 L 0.015625 -0.5 L 0.015625 -0.515625 L 0.125 -0.515625 L 0.125 -0.625 L 0.140625 -0.625 L 0.140625 -0.515625 L 0.3125 -0.515625 L 0.3125 -0.5 L 0.140625 -0.5 L 0.140625 -0.125 C 0.140625 -0.09375 0.148438 -0.0664062 0.171875 -0.046875 C 0.191406 -0.0234375 0.21875 -0.015625 0.25 -0.015625 C 0.28125 -0.015625 0.304688 -0.0234375 0.328125 -0.046875 Z M 0.34375 -0.03125 "></path></g></g></g></g></g></g></svg></g></g></svg>