<svg width="256" height="256" viewBox="0 0 256 256" fill="none" xmlns="http://www.w3.org/2000/svg">
  <!-- Left lower wing / legacy M detail -->
  <path
    d="M43.1759 123.179C68.7556 107.091 80.9178 122.509 91.5841 142.787C82.7577 158.858 76.9185 168.665 74.0658 172.209C68.6865 178.894 62.8182 183.956 55.6009 186.876C40.4279 194.007 21.5658 194.34 7 185.524L43.1759 123.179Z"
    fill="url(#paint0_linear)"
  />

  <!-- Main M + A combined body -->
  <path
    fill-rule="evenodd"
    clip-rule="evenodd"
    d="
      M222.155 114.863
      C199.02 74.3851 175.105 36.2488 147.634 92.1912
      C143.875 99.3829 141.136 113.359 135 113.359
      C128.864 113.359 126.125 99.3829 122.367 92.1912
      C94.8949 36.1778 70.9802 74.3141 47.8448 114.792
      C46.1037 117.845 44.4312 120.758 43 123.29

      C96.0189 89.7267 91.5552 191.123 135 191.929
      C178.446 191.194 173.981 89.7977 227 123.36
      C225.57 120.829 223.897 117.916 222.155 114.863
      Z

      M102.5 166
      L135 83
      L167.5 166
      H151.5
      L145.5 149.5
      H124.5
      L118.5 166
      H102.5

      M129 137.5
      H141
      L135 119.5
      L129 137.5
      Z
    "
    fill="url(#paint1_linear)"
  />

  <!-- Subtle inner A highlight / crossbar emphasis -->
  <path
    d="M122 148H148L153.5 163H169L136 80H134L101 163H116.5L122 148ZM128.5 136.5L135 118L141.5 136.5H128.5Z"
    fill="url(#paintA_linear)"
    opacity="0.88"
  />

  <!-- Right dot -->
  <path
    fill-rule="evenodd"
    clip-rule="evenodd"
    d="M225 192C238.254 192 249 181.254 249 168C249 154.746 238.254 144 225 144C211.746 144 201 154.746 201 168C201 181.254 211.746 192 225 192Z"
    fill="url(#paint2_linear)"
  />

  <defs>
    <linearGradient id="paint0_linear" x1="76" y1="83.8949" x2="32.7615" y2="129.812" gradientUnits="userSpaceOnUse">
      <stop stop-color="#004B50"/>
      <stop offset="1" stop-color="#00A76F"/>
    </linearGradient>

    <linearGradient id="paint1_linear" x1="43" y1="64" x2="43" y2="192" gradientUnits="userSpaceOnUse">
      <stop stop-color="#5BE49B"/>
      <stop offset="1" stop-color="#00A76F"/>
    </linearGradient>

    <linearGradient id="paintA_linear" x1="135" y1="80" x2="135" y2="166" gradientUnits="userSpaceOnUse">
      <stop stop-color="#E9FFF4"/>
      <stop offset="1" stop-color="#B7FFD8"/>
    </linearGradient>

    <linearGradient id="paint2_linear" x1="201" y1="144" x2="201" y2="192" gradientUnits="userSpaceOnUse">
      <stop stop-color="#5BE49B"/>
      <stop offset="1" stop-color="#00A76F"/>
    </linearGradient>
  </defs>
</svg>
